<svg width="296" height="292" viewBox="0 0 296 292" fill="none" xmlns="http://www.w3.org/2000/svg">
<path d="M267.284 0.722168H29.0575C13.3946 0.722168 0.697266 12.4491 0.697266 26.915V265.27C0.697266 279.734 13.3946 291.463 29.0575 291.463H267.284C282.947 291.463 295.645 279.734 295.645 265.27V26.915C295.645 12.4491 282.947 0.722168 267.284 0.722168Z" fill="url(#paint0_linear_1222_36)"/>
<path fill-rule="evenodd" clip-rule="evenodd" d="M84.0004 235.987L53.7886 185.934L84.0004 135.797H144.361L114.172 185.934L144.361 235.987H84.0004Z" fill="white"/>
<path fill-rule="evenodd" clip-rule="evenodd" d="M174.55 85.7037L144.36 35.6111L114.171 85.7037L143.161 133.813L144.36 135.797L174.55 185.934L204.744 235.987L234.915 185.934L204.744 135.797L174.55 85.7037Z" fill="white"/>
<defs>
<linearGradient id="paint0_linear_1222_36" x1="148.171" y1="0.722168" x2="148.171" y2="291.463" gradientUnits="userSpaceOnUse">
<stop stop-color="#9A55FF"/>
<stop offset="0.75" stop-color="#DA8CFF"/>
</linearGradient>
</defs>
</svg>
