<svg width="1168" height="314" viewBox="0 0 1168 314" fill="none" xmlns="http://www.w3.org/2000/svg">
<mask id="mask0_1222_52" style="mask-type:luminance" maskUnits="userSpaceOnUse" x="0" y="0" width="1168" height="312">
<path d="M1168 0H0V311.427H1168V0Z" fill="white"/>
</mask>
<g mask="url(#mask0_1222_52)">
<path fill-rule="evenodd" clip-rule="evenodd" d="M87.1367 256.489L56.9248 206.436L87.1367 156.298H147.497L117.308 206.436L147.497 256.489H87.1367Z" fill="white"/>
<path fill-rule="evenodd" clip-rule="evenodd" d="M177.686 106.206L147.496 56.113L117.307 106.206L146.297 154.315L147.496 156.299L177.686 206.436L207.88 256.489L238.051 206.436L207.88 156.299L177.686 106.206Z" fill="white"/>
<path d="M414.644 55.701L452.783 156.236H429.5L421.787 133.848H383.648L375.649 156.236H352.938L391.647 55.701H414.644ZM402.79 80.4826L389.505 117.374H415.93L403.076 80.4826H402.79ZM507.348 53.3074C519.253 53.3074 529.251 56.6163 537.348 63.2341C545.441 69.852 550.107 78.6056 551.346 89.4941H529.632C528.871 84.5193 526.346 80.3419 522.063 76.9626C517.778 73.5831 512.873 71.8936 507.348 71.8936C498.589 71.8936 491.778 74.9911 486.923 81.1868C482.066 87.3822 479.638 95.784 479.638 106.391C479.638 116.716 482.089 124.907 486.994 130.961C491.899 137.016 498.683 140.043 507.348 140.043C513.826 140.043 519.064 138.096 523.063 134.2C527.063 130.304 529.537 124.742 530.49 117.514H552.201C551.06 130.281 546.417 140.325 538.274 147.647C530.133 154.969 519.825 158.629 507.348 158.629C492.398 158.629 480.305 153.772 471.067 144.056C461.829 134.341 457.211 121.785 457.211 106.391C457.211 90.808 461.782 78.0651 470.926 68.1622C480.066 58.2593 492.209 53.3074 507.348 53.3074ZM613.196 53.3074C628.336 53.3074 640.479 58.2822 649.619 68.2326C658.762 78.1829 663.334 90.9022 663.334 106.391C663.334 121.035 658.904 133.379 650.05 143.422L662.762 154.828L652.335 165.67L637.907 152.716C630.86 156.658 622.623 158.629 613.196 158.629C598.151 158.629 586.031 153.701 576.841 143.845C567.653 133.989 563.058 121.504 563.058 106.391C563.058 90.808 567.63 78.0651 576.77 68.1622C585.913 58.2593 598.053 53.3074 613.196 53.3074ZM585.483 106.391C585.483 116.623 587.937 124.79 592.842 130.891C597.744 136.992 604.578 140.043 613.338 140.043C618.195 140.043 621.148 139.574 622.195 138.635L612.624 130.046L623.053 119.063L634.621 129.483C638.812 124.132 640.906 116.435 640.906 106.391C640.906 95.6895 638.432 87.2653 633.48 81.1161C628.527 74.9673 621.717 71.8936 613.052 71.8936C604.578 71.8936 597.865 74.9443 592.913 81.0458C587.96 87.1473 585.483 95.5953 585.483 106.391ZM700.615 55.701V118.641C700.615 126.057 702.305 131.478 705.685 134.904C709.066 138.33 714.375 140.043 721.613 140.043C729.42 140.043 734.897 138.33 738.038 134.904C741.182 131.478 742.754 126.057 742.754 118.641V55.701H765.179V118.641C765.179 131.219 761.537 141.029 754.251 148.069C746.966 155.109 736.086 158.629 721.613 158.629C706.853 158.629 695.926 155.109 688.829 148.069C681.736 141.029 678.188 131.219 678.188 118.641V55.701H700.615ZM806.891 55.701V156.236H784.463V55.701H806.891ZM881.595 55.701C890.166 55.701 897.286 58.3058 902.952 63.5156C908.615 68.7254 911.449 75.3667 911.449 83.4395C911.449 96.0181 906.069 104.42 895.31 108.644V108.925C898.926 109.958 901.76 111.671 903.807 114.065C905.854 116.458 907.402 119.251 908.449 122.443C909.497 125.634 910.163 130.75 910.449 137.79C910.83 146.99 912.163 153.138 914.449 156.236H892.024C890.785 153.138 889.832 147.318 889.166 138.776C888.405 129.764 886.738 123.875 884.167 121.105C881.595 118.335 877.406 116.951 871.596 116.951H849.027V156.236H826.602V55.701H881.595ZM873.74 101.181C878.501 101.181 882.238 100.125 884.951 98.0128C887.668 95.9009 889.024 92.1695 889.024 86.8187C889.024 81.75 887.691 78.1593 885.025 76.0474C882.359 73.9351 878.548 72.8792 873.596 72.8792H849.027V101.181H873.74ZM952.161 55.701V156.236H929.733V55.701H952.161ZM994.155 55.701L1036.72 123.146H1037.01V55.701H1058.01V156.236H1035.58L993.155 88.931H992.869V156.236H971.872V55.701H994.155ZM1123.43 53.3074C1135.05 53.3074 1144.9 56.6398 1153 63.3045C1161.09 69.9691 1165.57 78.4649 1166.42 88.7902H1145C1143.66 83.158 1141.09 78.9338 1137.28 76.1177C1133.47 73.3016 1128.85 71.8936 1123.43 71.8936C1114.67 71.8936 1107.86 75.0147 1103 81.2572C1098.14 87.4994 1095.72 95.8768 1095.72 106.391C1095.72 116.716 1098.19 124.907 1103.14 130.961C1108.1 137.016 1114.86 140.043 1123.43 140.043C1138.09 140.043 1146.19 132.815 1147.71 118.359H1125.14V101.885H1167.99V156.236H1153.71L1151.42 144.831C1144.28 154.03 1134.95 158.629 1123.43 158.629C1108.38 158.629 1096.26 153.748 1087.08 143.986C1077.88 134.223 1073.29 121.692 1073.29 106.391C1073.29 90.808 1077.86 78.0651 1087 68.1622C1096.14 58.2593 1108.28 53.3074 1123.43 53.3074Z" fill="#BF1922"/>
<path d="M405.518 195.096V206.791H386.282V258.356H372.171V206.791H352.938V195.096H405.518ZM460.885 195.096V206.791H426.999V220.346H458.098V231.156H426.999V246.66H461.602V258.356H412.889V195.096H460.885ZM499.892 193.589C507.384 193.589 513.675 195.672 518.769 199.836C523.862 204 526.797 209.508 527.576 216.359H513.914C513.436 213.229 511.846 210.6 509.15 208.474C506.455 206.348 503.369 205.285 499.892 205.285C494.379 205.285 490.097 207.234 487.041 211.132C483.983 215.03 482.455 220.317 482.455 226.991C482.455 233.489 484 238.642 487.085 242.452C490.171 246.262 494.441 248.167 499.892 248.167C503.968 248.167 507.263 246.941 509.779 244.49C512.297 242.039 513.855 238.539 514.454 233.991H528.115C527.396 242.024 524.476 248.344 519.353 252.951C514.229 257.558 507.743 259.862 499.892 259.862C490.486 259.862 482.877 256.805 477.063 250.692C471.25 244.578 468.345 236.678 468.345 226.991C468.345 217.186 471.22 209.168 476.972 202.937C482.726 196.705 490.365 193.589 499.892 193.589ZM551.844 195.096V219.372H577.82V195.096H591.93V258.356H577.82V231.067H551.844V258.356H537.734V195.096H551.844ZM618.357 195.096L645.141 237.535H645.321V195.096H658.532V258.356H644.422L617.726 216.005H617.546V258.356H604.336V195.096H618.357ZM699.698 193.589C709.165 193.589 716.793 196.69 722.574 202.892C728.355 209.094 731.248 217.128 731.248 226.991C731.248 236.619 728.34 244.505 722.529 250.647C716.716 256.79 709.106 259.862 699.698 259.862C690.233 259.862 682.605 256.79 676.824 250.647C671.041 244.505 668.15 236.619 668.15 226.991C668.15 217.186 671.055 209.168 676.869 202.937C682.682 196.705 690.292 193.589 699.698 193.589ZM682.263 226.991C682.263 233.37 683.791 238.494 686.847 242.363C689.902 246.233 694.185 248.167 699.698 248.167C705.092 248.167 709.345 246.262 712.463 242.452C715.577 238.642 717.135 233.488 717.135 226.991C717.135 220.199 715.592 214.883 712.507 211.044C709.422 207.204 705.122 205.285 699.609 205.285C694.217 205.285 689.976 207.204 686.891 211.044C683.806 214.883 682.263 220.198 682.263 226.991ZM754.976 195.096V246.66H786.255V258.356H740.863V195.096H754.976ZM822.926 193.589C832.394 193.589 840.018 196.69 845.802 202.892C851.583 209.094 854.474 217.128 854.474 226.991C854.474 236.619 851.568 244.505 845.755 250.647C839.945 256.79 832.335 259.862 822.926 259.862C813.458 259.862 805.834 256.79 800.05 250.647C794.269 244.505 791.379 236.619 791.379 226.991C791.379 217.186 794.284 209.168 800.097 202.937C805.908 196.705 813.517 193.589 822.926 193.589ZM805.489 226.991C805.489 233.37 807.017 238.494 810.072 242.363C813.128 246.233 817.414 248.167 822.926 248.167C828.318 248.167 832.574 246.262 835.688 242.452C838.806 238.642 840.363 233.488 840.363 226.991C840.363 220.199 838.821 214.883 835.733 211.044C832.648 207.204 828.35 205.285 822.835 205.285C817.443 205.285 813.205 207.204 810.117 211.044C807.031 214.883 805.489 220.198 805.489 226.991ZM892.855 193.589C900.164 193.589 906.366 195.686 911.46 199.88C916.554 204.074 919.368 209.419 919.907 215.916H906.425C905.588 212.373 903.968 209.715 901.571 207.943C899.176 206.17 896.27 205.285 892.855 205.285C887.339 205.285 883.057 207.249 880.001 211.176C876.946 215.104 875.418 220.376 875.418 226.991C875.418 233.489 876.975 238.642 880.09 242.452C883.207 246.262 887.46 248.167 892.855 248.167C902.081 248.167 907.175 243.618 908.133 234.522H893.931V224.156H920.895V258.356H911.908L910.469 251.179C905.977 256.968 900.105 259.862 892.855 259.862C883.387 259.862 875.76 256.79 869.979 250.647C864.198 244.505 861.305 236.619 861.305 226.991C861.305 217.186 864.18 209.168 869.935 202.937C875.686 196.705 883.325 193.589 892.855 193.589ZM941.208 195.096L956.221 220.081L971.14 195.096H986.869L963.052 234.079V258.356H948.939V233.725L925.302 195.096H941.208Z" fill="url(#paint0_linear_1222_52)"/>
</g>
<mask id="mask1_1222_52" style="mask-type:luminance" maskUnits="userSpaceOnUse" x="0" y="0" width="1168" height="312">
<path d="M1168 0H0V311.427H1168V0Z" fill="white"/>
</mask>
<g mask="url(#mask1_1222_52)">
<path fill-rule="evenodd" clip-rule="evenodd" d="M87.1367 256.489L56.9248 206.436L87.1367 156.298H147.497L117.308 206.436L147.497 256.489H87.1367Z" fill="white"/>
<path fill-rule="evenodd" clip-rule="evenodd" d="M177.686 106.206L147.496 56.113L117.307 106.206L146.297 154.315L147.496 156.299L177.686 206.436L207.88 256.489L238.051 206.436L207.88 156.299L177.686 106.206Z" fill="white"/>
<path d="M414.644 55.701L452.783 156.236H429.5L421.787 133.848H383.648L375.649 156.236H352.938L391.647 55.701H414.644ZM402.79 80.4826L389.505 117.374H415.93L403.076 80.4826H402.79ZM507.348 53.3074C519.253 53.3074 529.251 56.6163 537.348 63.2341C545.441 69.852 550.107 78.6056 551.346 89.4941H529.632C528.871 84.5193 526.346 80.3419 522.063 76.9626C517.778 73.5831 512.873 71.8936 507.348 71.8936C498.589 71.8936 491.778 74.9911 486.923 81.1868C482.066 87.3822 479.638 95.784 479.638 106.391C479.638 116.716 482.089 124.907 486.994 130.961C491.899 137.016 498.683 140.043 507.348 140.043C513.826 140.043 519.064 138.096 523.063 134.2C527.063 130.304 529.537 124.742 530.49 117.514H552.201C551.06 130.281 546.417 140.325 538.274 147.647C530.133 154.969 519.825 158.629 507.348 158.629C492.398 158.629 480.305 153.772 471.067 144.056C461.829 134.341 457.211 121.785 457.211 106.391C457.211 90.808 461.782 78.0651 470.926 68.1622C480.066 58.2593 492.209 53.3074 507.348 53.3074ZM613.196 53.3074C628.336 53.3074 640.479 58.2822 649.619 68.2326C658.762 78.1829 663.334 90.9022 663.334 106.391C663.334 121.035 658.904 133.379 650.05 143.422L662.762 154.828L652.335 165.67L637.907 152.716C630.86 156.658 622.623 158.629 613.196 158.629C598.151 158.629 586.031 153.701 576.841 143.845C567.653 133.989 563.058 121.504 563.058 106.391C563.058 90.808 567.63 78.0651 576.77 68.1622C585.913 58.2593 598.053 53.3074 613.196 53.3074ZM585.483 106.391C585.483 116.623 587.937 124.79 592.842 130.891C597.744 136.992 604.578 140.043 613.338 140.043C618.195 140.043 621.148 139.574 622.195 138.635L612.624 130.046L623.053 119.063L634.621 129.483C638.812 124.132 640.906 116.435 640.906 106.391C640.906 95.6895 638.432 87.2653 633.48 81.1161C628.527 74.9673 621.717 71.8936 613.052 71.8936C604.578 71.8936 597.865 74.9443 592.913 81.0458C587.96 87.1473 585.483 95.5953 585.483 106.391ZM700.615 55.701V118.641C700.615 126.057 702.305 131.478 705.685 134.904C709.066 138.33 714.375 140.043 721.613 140.043C729.42 140.043 734.897 138.33 738.038 134.904C741.182 131.478 742.754 126.057 742.754 118.641V55.701H765.179V118.641C765.179 131.219 761.537 141.029 754.251 148.069C746.966 155.109 736.086 158.629 721.613 158.629C706.853 158.629 695.926 155.109 688.829 148.069C681.736 141.029 678.188 131.219 678.188 118.641V55.701H700.615ZM806.891 55.701V156.236H784.463V55.701H806.891ZM881.595 55.701C890.166 55.701 897.286 58.3058 902.952 63.5156C908.615 68.7254 911.449 75.3667 911.449 83.4395C911.449 96.0181 906.069 104.42 895.31 108.644V108.925C898.926 109.958 901.76 111.671 903.807 114.065C905.854 116.458 907.402 119.251 908.449 122.443C909.497 125.634 910.163 130.75 910.449 137.79C910.83 146.99 912.163 153.138 914.449 156.236H892.024C890.785 153.138 889.832 147.318 889.166 138.776C888.405 129.764 886.738 123.875 884.167 121.105C881.595 118.335 877.406 116.951 871.596 116.951H849.027V156.236H826.602V55.701H881.595ZM873.74 101.181C878.501 101.181 882.238 100.125 884.951 98.0128C887.668 95.9009 889.024 92.1695 889.024 86.8187C889.024 81.75 887.691 78.1593 885.025 76.0474C882.359 73.9351 878.548 72.8792 873.596 72.8792H849.027V101.181H873.74ZM952.161 55.701V156.236H929.733V55.701H952.161ZM994.155 55.701L1036.72 123.146H1037.01V55.701H1058.01V156.236H1035.58L993.155 88.931H992.869V156.236H971.872V55.701H994.155ZM1123.43 53.3074C1135.05 53.3074 1144.9 56.6398 1153 63.3045C1161.09 69.9691 1165.57 78.4649 1166.42 88.7902H1145C1143.66 83.158 1141.09 78.9338 1137.28 76.1177C1133.47 73.3016 1128.85 71.8936 1123.43 71.8936C1114.67 71.8936 1107.86 75.0147 1103 81.2572C1098.14 87.4994 1095.72 95.8768 1095.72 106.391C1095.72 116.716 1098.19 124.907 1103.14 130.961C1108.1 137.016 1114.86 140.043 1123.43 140.043C1138.09 140.043 1146.19 132.815 1147.71 118.359H1125.14V101.885H1167.99V156.236H1153.71L1151.42 144.831C1144.28 154.03 1134.95 158.629 1123.43 158.629C1108.38 158.629 1096.26 153.748 1087.08 143.986C1077.88 134.223 1073.29 121.692 1073.29 106.391C1073.29 90.808 1077.86 78.0651 1087 68.1622C1096.14 58.2593 1108.28 53.3074 1123.43 53.3074Z" fill="white"/>
<path d="M405.518 195.096V206.791H386.282V258.356H372.171V206.791H352.938V195.096H405.518ZM460.885 195.096V206.791H426.999V220.346H458.098V231.156H426.999V246.66H461.602V258.356H412.889V195.096H460.885ZM499.892 193.589C507.384 193.589 513.675 195.672 518.769 199.836C523.862 204 526.797 209.508 527.576 216.359H513.914C513.436 213.229 511.846 210.6 509.15 208.474C506.455 206.348 503.369 205.285 499.892 205.285C494.379 205.285 490.097 207.234 487.041 211.132C483.983 215.03 482.455 220.317 482.455 226.991C482.455 233.489 484 238.642 487.085 242.452C490.171 246.262 494.441 248.167 499.892 248.167C503.968 248.167 507.263 246.941 509.779 244.49C512.297 242.039 513.855 238.539 514.454 233.991H528.115C527.396 242.024 524.476 248.344 519.353 252.951C514.229 257.558 507.743 259.862 499.892 259.862C490.486 259.862 482.877 256.805 477.063 250.692C471.25 244.578 468.345 236.678 468.345 226.991C468.345 217.186 471.22 209.168 476.972 202.937C482.726 196.705 490.365 193.589 499.892 193.589ZM551.844 195.096V219.372H577.82V195.096H591.93V258.356H577.82V231.067H551.844V258.356H537.734V195.096H551.844ZM618.357 195.096L645.141 237.535H645.321V195.096H658.532V258.356H644.422L617.726 216.005H617.546V258.356H604.336V195.096H618.357ZM699.698 193.589C709.165 193.589 716.793 196.69 722.574 202.892C728.355 209.094 731.248 217.128 731.248 226.991C731.248 236.619 728.34 244.505 722.529 250.647C716.716 256.79 709.106 259.862 699.698 259.862C690.233 259.862 682.605 256.79 676.824 250.647C671.041 244.505 668.15 236.619 668.15 226.991C668.15 217.186 671.055 209.168 676.869 202.937C682.682 196.705 690.292 193.589 699.698 193.589ZM682.263 226.991C682.263 233.37 683.791 238.494 686.847 242.363C689.902 246.233 694.185 248.167 699.698 248.167C705.092 248.167 709.345 246.262 712.463 242.452C715.577 238.642 717.135 233.488 717.135 226.991C717.135 220.199 715.592 214.883 712.507 211.044C709.422 207.204 705.122 205.285 699.609 205.285C694.217 205.285 689.976 207.204 686.891 211.044C683.806 214.883 682.263 220.198 682.263 226.991ZM754.976 195.096V246.66H786.255V258.356H740.863V195.096H754.976ZM822.926 193.589C832.394 193.589 840.018 196.69 845.802 202.892C851.583 209.094 854.474 217.128 854.474 226.991C854.474 236.619 851.568 244.505 845.755 250.647C839.945 256.79 832.335 259.862 822.926 259.862C813.458 259.862 805.834 256.79 800.05 250.647C794.269 244.505 791.379 236.619 791.379 226.991C791.379 217.186 794.284 209.168 800.097 202.937C805.908 196.705 813.517 193.589 822.926 193.589ZM805.489 226.991C805.489 233.37 807.017 238.494 810.072 242.363C813.128 246.233 817.414 248.167 822.926 248.167C828.318 248.167 832.574 246.262 835.688 242.452C838.806 238.642 840.363 233.488 840.363 226.991C840.363 220.199 838.821 214.883 835.733 211.044C832.648 207.204 828.35 205.285 822.835 205.285C817.443 205.285 813.205 207.204 810.117 211.044C807.031 214.883 805.489 220.198 805.489 226.991ZM892.855 193.589C900.164 193.589 906.366 195.686 911.46 199.88C916.554 204.074 919.368 209.419 919.907 215.916H906.425C905.588 212.373 903.968 209.715 901.571 207.943C899.176 206.17 896.27 205.285 892.855 205.285C887.339 205.285 883.057 207.249 880.001 211.176C876.946 215.104 875.418 220.376 875.418 226.991C875.418 233.489 876.975 238.642 880.09 242.452C883.207 246.262 887.46 248.167 892.855 248.167C902.081 248.167 907.175 243.618 908.133 234.522H893.931V224.156H920.895V258.356H911.908L910.469 251.179C905.977 256.968 900.105 259.862 892.855 259.862C883.387 259.862 875.76 256.79 869.979 250.647C864.198 244.505 861.305 236.619 861.305 226.991C861.305 217.186 864.18 209.168 869.935 202.937C875.686 196.705 883.325 193.589 892.855 193.589ZM941.208 195.096L956.221 220.081L971.14 195.096H986.869L963.052 234.079V258.356H948.939V233.725L925.302 195.096H941.208Z" fill="white"/>
</g>
<mask id="mask2_1222_52" style="mask-type:luminance" maskUnits="userSpaceOnUse" x="0" y="0" width="1168" height="312">
<path d="M1168 0H0V311.427H1168V0Z" fill="white"/>
</mask>
<g mask="url(#mask2_1222_52)">
<path fill-rule="evenodd" clip-rule="evenodd" d="M87.1367 256.489L56.9248 206.436L87.1367 156.298H147.497L117.308 206.436L147.497 256.489H87.1367Z" fill="white"/>
<path fill-rule="evenodd" clip-rule="evenodd" d="M177.686 106.206L147.496 56.113L117.307 106.206L146.297 154.315L147.496 156.299L177.686 206.436L207.88 256.489L238.051 206.436L207.88 156.299L177.686 106.206Z" fill="white"/>
<path d="M414.644 55.701L452.783 156.236H429.5L421.787 133.848H383.648L375.649 156.236H352.938L391.647 55.701H414.644ZM402.79 80.4826L389.505 117.374H415.93L403.076 80.4826H402.79ZM507.348 53.3074C519.253 53.3074 529.251 56.6163 537.348 63.2341C545.441 69.852 550.107 78.6056 551.346 89.4941H529.632C528.871 84.5193 526.346 80.3419 522.063 76.9626C517.778 73.5831 512.873 71.8936 507.348 71.8936C498.589 71.8936 491.778 74.9911 486.923 81.1868C482.066 87.3822 479.638 95.784 479.638 106.391C479.638 116.716 482.089 124.907 486.994 130.961C491.899 137.016 498.683 140.043 507.348 140.043C513.826 140.043 519.064 138.096 523.063 134.2C527.063 130.304 529.537 124.742 530.49 117.514H552.201C551.06 130.281 546.417 140.325 538.274 147.647C530.133 154.969 519.825 158.629 507.348 158.629C492.398 158.629 480.305 153.772 471.067 144.056C461.829 134.341 457.211 121.785 457.211 106.391C457.211 90.808 461.782 78.0651 470.926 68.1622C480.066 58.2593 492.209 53.3074 507.348 53.3074ZM613.196 53.3074C628.336 53.3074 640.479 58.2822 649.619 68.2326C658.762 78.1829 663.334 90.9022 663.334 106.391C663.334 121.035 658.904 133.379 650.05 143.422L662.762 154.828L652.335 165.67L637.907 152.716C630.86 156.658 622.623 158.629 613.196 158.629C598.151 158.629 586.031 153.701 576.841 143.845C567.653 133.989 563.058 121.504 563.058 106.391C563.058 90.808 567.63 78.0651 576.77 68.1622C585.913 58.2593 598.053 53.3074 613.196 53.3074ZM585.483 106.391C585.483 116.623 587.937 124.79 592.842 130.891C597.744 136.992 604.578 140.043 613.338 140.043C618.195 140.043 621.148 139.574 622.195 138.635L612.624 130.046L623.053 119.063L634.621 129.483C638.812 124.132 640.906 116.435 640.906 106.391C640.906 95.6895 638.432 87.2653 633.48 81.1161C628.527 74.9673 621.717 71.8936 613.052 71.8936C604.578 71.8936 597.865 74.9443 592.913 81.0458C587.96 87.1473 585.483 95.5953 585.483 106.391ZM700.615 55.701V118.641C700.615 126.057 702.305 131.478 705.685 134.904C709.066 138.33 714.375 140.043 721.613 140.043C729.42 140.043 734.897 138.33 738.038 134.904C741.182 131.478 742.754 126.057 742.754 118.641V55.701H765.179V118.641C765.179 131.219 761.537 141.029 754.251 148.069C746.966 155.109 736.086 158.629 721.613 158.629C706.853 158.629 695.926 155.109 688.829 148.069C681.736 141.029 678.188 131.219 678.188 118.641V55.701H700.615ZM806.891 55.701V156.236H784.463V55.701H806.891ZM881.595 55.701C890.166 55.701 897.286 58.3058 902.952 63.5156C908.615 68.7254 911.449 75.3667 911.449 83.4395C911.449 96.0181 906.069 104.42 895.31 108.644V108.925C898.926 109.958 901.76 111.671 903.807 114.065C905.854 116.458 907.402 119.251 908.449 122.443C909.497 125.634 910.163 130.75 910.449 137.79C910.83 146.99 912.163 153.138 914.449 156.236H892.024C890.785 153.138 889.832 147.318 889.166 138.776C888.405 129.764 886.738 123.875 884.167 121.105C881.595 118.335 877.406 116.951 871.596 116.951H849.027V156.236H826.602V55.701H881.595ZM873.74 101.181C878.501 101.181 882.238 100.125 884.951 98.0128C887.668 95.9009 889.024 92.1695 889.024 86.8187C889.024 81.75 887.691 78.1593 885.025 76.0474C882.359 73.9351 878.548 72.8792 873.596 72.8792H849.027V101.181H873.74ZM952.161 55.701V156.236H929.733V55.701H952.161ZM994.155 55.701L1036.72 123.146H1037.01V55.701H1058.01V156.236H1035.58L993.155 88.931H992.869V156.236H971.872V55.701H994.155ZM1123.43 53.3074C1135.05 53.3074 1144.9 56.6398 1153 63.3045C1161.09 69.9691 1165.57 78.4649 1166.42 88.7902H1145C1143.66 83.158 1141.09 78.9338 1137.28 76.1177C1133.47 73.3016 1128.85 71.8936 1123.43 71.8936C1114.67 71.8936 1107.86 75.0147 1103 81.2572C1098.14 87.4994 1095.72 95.8768 1095.72 106.391C1095.72 116.716 1098.19 124.907 1103.14 130.961C1108.1 137.016 1114.86 140.043 1123.43 140.043C1138.09 140.043 1146.19 132.815 1147.71 118.359H1125.14V101.885H1167.99V156.236H1153.71L1151.42 144.831C1144.28 154.03 1134.95 158.629 1123.43 158.629C1108.38 158.629 1096.26 153.748 1087.08 143.986C1077.88 134.223 1073.29 121.692 1073.29 106.391C1073.29 90.808 1077.86 78.0651 1087 68.1622C1096.14 58.2593 1108.28 53.3074 1123.43 53.3074Z" fill="white"/>
<path d="M405.518 195.096V206.791H386.282V258.356H372.171V206.791H352.938V195.096H405.518ZM460.885 195.096V206.791H426.999V220.346H458.098V231.156H426.999V246.66H461.602V258.356H412.889V195.096H460.885ZM499.892 193.589C507.384 193.589 513.675 195.672 518.769 199.836C523.862 204 526.797 209.508 527.576 216.359H513.914C513.436 213.229 511.846 210.6 509.15 208.474C506.455 206.348 503.369 205.285 499.892 205.285C494.379 205.285 490.097 207.234 487.041 211.132C483.983 215.03 482.455 220.317 482.455 226.991C482.455 233.489 484 238.642 487.085 242.452C490.171 246.262 494.441 248.167 499.892 248.167C503.968 248.167 507.263 246.941 509.779 244.49C512.297 242.039 513.855 238.539 514.454 233.991H528.115C527.396 242.024 524.476 248.344 519.353 252.951C514.229 257.558 507.743 259.862 499.892 259.862C490.486 259.862 482.877 256.805 477.063 250.692C471.25 244.578 468.345 236.678 468.345 226.991C468.345 217.186 471.22 209.168 476.972 202.937C482.726 196.705 490.365 193.589 499.892 193.589ZM551.844 195.096V219.372H577.82V195.096H591.93V258.356H577.82V231.067H551.844V258.356H537.734V195.096H551.844ZM618.357 195.096L645.141 237.535H645.321V195.096H658.532V258.356H644.422L617.726 216.005H617.546V258.356H604.336V195.096H618.357ZM699.698 193.589C709.165 193.589 716.793 196.69 722.574 202.892C728.355 209.094 731.248 217.128 731.248 226.991C731.248 236.619 728.34 244.505 722.529 250.647C716.716 256.79 709.106 259.862 699.698 259.862C690.233 259.862 682.605 256.79 676.824 250.647C671.041 244.505 668.15 236.619 668.15 226.991C668.15 217.186 671.055 209.168 676.869 202.937C682.682 196.705 690.292 193.589 699.698 193.589ZM682.263 226.991C682.263 233.37 683.791 238.494 686.847 242.363C689.902 246.233 694.185 248.167 699.698 248.167C705.092 248.167 709.345 246.262 712.463 242.452C715.577 238.642 717.135 233.488 717.135 226.991C717.135 220.199 715.592 214.883 712.507 211.044C709.422 207.204 705.122 205.285 699.609 205.285C694.217 205.285 689.976 207.204 686.891 211.044C683.806 214.883 682.263 220.198 682.263 226.991ZM754.976 195.096V246.66H786.255V258.356H740.863V195.096H754.976ZM822.926 193.589C832.394 193.589 840.018 196.69 845.802 202.892C851.583 209.094 854.474 217.128 854.474 226.991C854.474 236.619 851.568 244.505 845.755 250.647C839.945 256.79 832.335 259.862 822.926 259.862C813.458 259.862 805.834 256.79 800.05 250.647C794.269 244.505 791.379 236.619 791.379 226.991C791.379 217.186 794.284 209.168 800.097 202.937C805.908 196.705 813.517 193.589 822.926 193.589ZM805.489 226.991C805.489 233.37 807.017 238.494 810.072 242.363C813.128 246.233 817.414 248.167 822.926 248.167C828.318 248.167 832.574 246.262 835.688 242.452C838.806 238.642 840.363 233.488 840.363 226.991C840.363 220.199 838.821 214.883 835.733 211.044C832.648 207.204 828.35 205.285 822.835 205.285C817.443 205.285 813.205 207.204 810.117 211.044C807.031 214.883 805.489 220.198 805.489 226.991ZM892.855 193.589C900.164 193.589 906.366 195.686 911.46 199.88C916.554 204.074 919.368 209.419 919.907 215.916H906.425C905.588 212.373 903.968 209.715 901.571 207.943C899.176 206.17 896.27 205.285 892.855 205.285C887.339 205.285 883.057 207.249 880.001 211.176C876.946 215.104 875.418 220.376 875.418 226.991C875.418 233.489 876.975 238.642 880.09 242.452C883.207 246.262 887.46 248.167 892.855 248.167C902.081 248.167 907.175 243.618 908.133 234.522H893.931V224.156H920.895V258.356H911.908L910.469 251.179C905.977 256.968 900.105 259.862 892.855 259.862C883.387 259.862 875.76 256.79 869.979 250.647C864.198 244.505 861.305 236.619 861.305 226.991C861.305 217.186 864.18 209.168 869.935 202.937C875.686 196.705 883.325 193.589 892.855 193.589ZM941.208 195.096L956.221 220.081L971.14 195.096H986.869L963.052 234.079V258.356H948.939V233.725L925.302 195.096H941.208Z" fill="white"/>
</g>
<mask id="mask3_1222_52" style="mask-type:luminance" maskUnits="userSpaceOnUse" x="0" y="0" width="1168" height="312">
<path d="M1168 0H0V311.427H1168V0Z" fill="white"/>
</mask>
<g mask="url(#mask3_1222_52)">
<path fill-rule="evenodd" clip-rule="evenodd" d="M87.1367 256.489L56.9248 206.436L87.1367 156.298H147.497L117.308 206.436L147.497 256.489H87.1367Z" fill="white"/>
<path fill-rule="evenodd" clip-rule="evenodd" d="M177.686 106.206L147.496 56.113L117.307 106.206L146.297 154.315L147.496 156.299L177.686 206.436L207.88 256.489L238.051 206.436L207.88 156.299L177.686 106.206Z" fill="white"/>
<path d="M414.644 55.701L452.783 156.236H429.5L421.787 133.848H383.648L375.649 156.236H352.938L391.647 55.701H414.644ZM402.79 80.4826L389.505 117.374H415.93L403.076 80.4826H402.79ZM507.348 53.3074C519.253 53.3074 529.251 56.6163 537.348 63.2341C545.441 69.852 550.107 78.6056 551.346 89.4941H529.632C528.871 84.5193 526.346 80.3419 522.063 76.9626C517.778 73.5831 512.873 71.8936 507.348 71.8936C498.589 71.8936 491.778 74.9911 486.923 81.1868C482.066 87.3822 479.638 95.784 479.638 106.391C479.638 116.716 482.089 124.907 486.994 130.961C491.899 137.016 498.683 140.043 507.348 140.043C513.826 140.043 519.064 138.096 523.063 134.2C527.063 130.304 529.537 124.742 530.49 117.514H552.201C551.06 130.281 546.417 140.325 538.274 147.647C530.133 154.969 519.825 158.629 507.348 158.629C492.398 158.629 480.305 153.772 471.067 144.056C461.829 134.341 457.211 121.785 457.211 106.391C457.211 90.808 461.782 78.0651 470.926 68.1622C480.066 58.2593 492.209 53.3074 507.348 53.3074ZM613.196 53.3074C628.336 53.3074 640.479 58.2822 649.619 68.2326C658.762 78.1829 663.334 90.9022 663.334 106.391C663.334 121.035 658.904 133.379 650.05 143.422L662.762 154.828L652.335 165.67L637.907 152.716C630.86 156.658 622.623 158.629 613.196 158.629C598.151 158.629 586.031 153.701 576.841 143.845C567.653 133.989 563.058 121.504 563.058 106.391C563.058 90.808 567.63 78.0651 576.77 68.1622C585.913 58.2593 598.053 53.3074 613.196 53.3074ZM585.483 106.391C585.483 116.623 587.937 124.79 592.842 130.891C597.744 136.992 604.578 140.043 613.338 140.043C618.195 140.043 621.148 139.574 622.195 138.635L612.624 130.046L623.053 119.063L634.621 129.483C638.812 124.132 640.906 116.435 640.906 106.391C640.906 95.6895 638.432 87.2653 633.48 81.1161C628.527 74.9673 621.717 71.8936 613.052 71.8936C604.578 71.8936 597.865 74.9443 592.913 81.0458C587.96 87.1473 585.483 95.5953 585.483 106.391ZM700.615 55.701V118.641C700.615 126.057 702.305 131.478 705.685 134.904C709.066 138.33 714.375 140.043 721.613 140.043C729.42 140.043 734.897 138.33 738.038 134.904C741.182 131.478 742.754 126.057 742.754 118.641V55.701H765.179V118.641C765.179 131.219 761.537 141.029 754.251 148.069C746.966 155.109 736.086 158.629 721.613 158.629C706.853 158.629 695.926 155.109 688.829 148.069C681.736 141.029 678.188 131.219 678.188 118.641V55.701H700.615ZM806.891 55.701V156.236H784.463V55.701H806.891ZM881.595 55.701C890.166 55.701 897.286 58.3058 902.952 63.5156C908.615 68.7254 911.449 75.3667 911.449 83.4395C911.449 96.0181 906.069 104.42 895.31 108.644V108.925C898.926 109.958 901.76 111.671 903.807 114.065C905.854 116.458 907.402 119.251 908.449 122.443C909.497 125.634 910.163 130.75 910.449 137.79C910.83 146.99 912.163 153.138 914.449 156.236H892.024C890.785 153.138 889.832 147.318 889.166 138.776C888.405 129.764 886.738 123.875 884.167 121.105C881.595 118.335 877.406 116.951 871.596 116.951H849.027V156.236H826.602V55.701H881.595ZM873.74 101.181C878.501 101.181 882.238 100.125 884.951 98.0128C887.668 95.9009 889.024 92.1695 889.024 86.8187C889.024 81.75 887.691 78.1593 885.025 76.0474C882.359 73.9351 878.548 72.8792 873.596 72.8792H849.027V101.181H873.74ZM952.161 55.701V156.236H929.733V55.701H952.161ZM994.155 55.701L1036.72 123.146H1037.01V55.701H1058.01V156.236H1035.58L993.155 88.931H992.869V156.236H971.872V55.701H994.155ZM1123.43 53.3074C1135.05 53.3074 1144.9 56.6398 1153 63.3045C1161.09 69.9691 1165.57 78.4649 1166.42 88.7902H1145C1143.66 83.158 1141.09 78.9338 1137.28 76.1177C1133.47 73.3016 1128.85 71.8936 1123.43 71.8936C1114.67 71.8936 1107.86 75.0147 1103 81.2572C1098.14 87.4994 1095.72 95.8768 1095.72 106.391C1095.72 116.716 1098.19 124.907 1103.14 130.961C1108.1 137.016 1114.86 140.043 1123.43 140.043C1138.09 140.043 1146.19 132.815 1147.71 118.359H1125.14V101.885H1167.99V156.236H1153.71L1151.42 144.831C1144.28 154.03 1134.95 158.629 1123.43 158.629C1108.38 158.629 1096.26 153.748 1087.08 143.986C1077.88 134.223 1073.29 121.692 1073.29 106.391C1073.29 90.808 1077.86 78.0651 1087 68.1622C1096.14 58.2593 1108.28 53.3074 1123.43 53.3074Z" fill="white"/>
<path d="M405.518 195.096V206.791H386.282V258.356H372.171V206.791H352.938V195.096H405.518ZM460.885 195.096V206.791H426.999V220.346H458.098V231.156H426.999V246.66H461.602V258.356H412.889V195.096H460.885ZM499.892 193.589C507.384 193.589 513.675 195.672 518.769 199.836C523.862 204 526.797 209.508 527.576 216.359H513.914C513.436 213.229 511.846 210.6 509.15 208.474C506.455 206.348 503.369 205.285 499.892 205.285C494.379 205.285 490.097 207.234 487.041 211.132C483.983 215.03 482.455 220.317 482.455 226.991C482.455 233.489 484 238.642 487.085 242.452C490.171 246.262 494.441 248.167 499.892 248.167C503.968 248.167 507.263 246.941 509.779 244.49C512.297 242.039 513.855 238.539 514.454 233.991H528.115C527.396 242.024 524.476 248.344 519.353 252.951C514.229 257.558 507.743 259.862 499.892 259.862C490.486 259.862 482.877 256.805 477.063 250.692C471.25 244.578 468.345 236.678 468.345 226.991C468.345 217.186 471.22 209.168 476.972 202.937C482.726 196.705 490.365 193.589 499.892 193.589ZM551.844 195.096V219.372H577.82V195.096H591.93V258.356H577.82V231.067H551.844V258.356H537.734V195.096H551.844ZM618.357 195.096L645.141 237.535H645.321V195.096H658.532V258.356H644.422L617.726 216.005H617.546V258.356H604.336V195.096H618.357ZM699.698 193.589C709.165 193.589 716.793 196.69 722.574 202.892C728.355 209.094 731.248 217.128 731.248 226.991C731.248 236.619 728.34 244.505 722.529 250.647C716.716 256.79 709.106 259.862 699.698 259.862C690.233 259.862 682.605 256.79 676.824 250.647C671.041 244.505 668.15 236.619 668.15 226.991C668.15 217.186 671.055 209.168 676.869 202.937C682.682 196.705 690.292 193.589 699.698 193.589ZM682.263 226.991C682.263 233.37 683.791 238.494 686.847 242.363C689.902 246.233 694.185 248.167 699.698 248.167C705.092 248.167 709.345 246.262 712.463 242.452C715.577 238.642 717.135 233.488 717.135 226.991C717.135 220.199 715.592 214.883 712.507 211.044C709.422 207.204 705.122 205.285 699.609 205.285C694.217 205.285 689.976 207.204 686.891 211.044C683.806 214.883 682.263 220.198 682.263 226.991ZM754.976 195.096V246.66H786.255V258.356H740.863V195.096H754.976ZM822.926 193.589C832.394 193.589 840.018 196.69 845.802 202.892C851.583 209.094 854.474 217.128 854.474 226.991C854.474 236.619 851.568 244.505 845.755 250.647C839.945 256.79 832.335 259.862 822.926 259.862C813.458 259.862 805.834 256.79 800.05 250.647C794.269 244.505 791.379 236.619 791.379 226.991C791.379 217.186 794.284 209.168 800.097 202.937C805.908 196.705 813.517 193.589 822.926 193.589ZM805.489 226.991C805.489 233.37 807.017 238.494 810.072 242.363C813.128 246.233 817.414 248.167 822.926 248.167C828.318 248.167 832.574 246.262 835.688 242.452C838.806 238.642 840.363 233.488 840.363 226.991C840.363 220.199 838.821 214.883 835.733 211.044C832.648 207.204 828.35 205.285 822.835 205.285C817.443 205.285 813.205 207.204 810.117 211.044C807.031 214.883 805.489 220.198 805.489 226.991ZM892.855 193.589C900.164 193.589 906.366 195.686 911.46 199.88C916.554 204.074 919.368 209.419 919.907 215.916H906.425C905.588 212.373 903.968 209.715 901.571 207.943C899.176 206.17 896.27 205.285 892.855 205.285C887.339 205.285 883.057 207.249 880.001 211.176C876.946 215.104 875.418 220.376 875.418 226.991C875.418 233.489 876.975 238.642 880.09 242.452C883.207 246.262 887.46 248.167 892.855 248.167C902.081 248.167 907.175 243.618 908.133 234.522H893.931V224.156H920.895V258.356H911.908L910.469 251.179C905.977 256.968 900.105 259.862 892.855 259.862C883.387 259.862 875.76 256.79 869.979 250.647C864.198 244.505 861.305 236.619 861.305 226.991C861.305 217.186 864.18 209.168 869.935 202.937C875.686 196.705 883.325 193.589 892.855 193.589ZM941.208 195.096L956.221 220.081L971.14 195.096H986.869L963.052 234.079V258.356H948.939V233.725L925.302 195.096H941.208Z" fill="white"/>
</g>
<path d="M284.284 8.72217H46.0575C30.3946 8.72217 17.6973 20.4491 17.6973 34.915V273.27C17.6973 287.734 30.3946 299.463 46.0575 299.463H284.284C299.947 299.463 312.645 287.734 312.645 273.27V34.915C312.645 20.4491 299.947 8.72217 284.284 8.72217Z" fill="white"/>
<path fill-rule="evenodd" clip-rule="evenodd" d="M101 243.987L70.7886 193.934L101 143.797H161.361L131.172 193.934L161.361 243.987H101Z" fill="url(#paint1_linear_1222_52)"/>
<path fill-rule="evenodd" clip-rule="evenodd" d="M191.55 93.7037L161.36 43.6111L131.171 93.7037L160.161 141.813L161.36 143.797L191.55 193.934L221.744 243.987L251.915 193.934L221.744 143.797L191.55 93.7037Z" fill="url(#paint2_linear_1222_52)"/>
<defs>
<linearGradient id="paint0_linear_1222_52" x1="352.938" y1="193.589" x2="986.869" y2="193.589" gradientUnits="userSpaceOnUse">
<stop stop-color="#7D141D"/>
<stop offset="1" stop-color="#FF1E27"/>
</linearGradient>
<linearGradient id="paint1_linear_1222_52" x1="116.075" y1="143.797" x2="116.075" y2="243.987" gradientUnits="userSpaceOnUse">
<stop stop-color="#9A55FF"/>
<stop offset="0.455" stop-color="#DA8CFF"/>
</linearGradient>
<linearGradient id="paint2_linear_1222_52" x1="191.543" y1="43.6111" x2="191.543" y2="243.987" gradientUnits="userSpaceOnUse">
<stop stop-color="#9A55FF"/>
<stop offset="0.455" stop-color="#DA8CFF"/>
</linearGradient>
</defs>
</svg>
