<svg width="80" height="22" viewBox="0 0 80 22" fill="none" xmlns="http://www.w3.org/2000/svg">
<mask id="mask0_208_203" style="mask-type:luminance" maskUnits="userSpaceOnUse" x="0" y="0" width="80" height="22">
<path d="M80 0H0V21.2787H80V0Z" fill="white"/>
</mask>
<g mask="url(#mask0_208_203)">
<path fill-rule="evenodd" clip-rule="evenodd" d="M5.96834 17.5251L3.89905 14.1052L5.96834 10.6794H10.1026L8.03485 14.1052L10.1026 17.5251H5.96834Z" fill="white"/>
<path fill-rule="evenodd" clip-rule="evenodd" d="M12.1703 7.25664L10.1025 3.83398L8.03479 7.25664L10.0204 10.5438L10.1025 10.6793L12.1703 14.1051L14.2383 17.525L16.3048 14.1051L14.2383 10.6793L12.1703 7.25664Z" fill="white"/>
<path d="M28.4003 3.80589L31.0126 10.6751H29.4179L28.8896 9.14539H26.2773L25.7294 10.6751H24.1738L26.8251 3.80589H28.4003ZM27.5884 5.49913L26.6785 8.01976H28.4884L27.608 5.49913H27.5884ZM34.75 3.64233C35.5654 3.64233 36.2502 3.86842 36.8048 4.3206C37.3591 4.77277 37.6787 5.37088 37.7635 6.11485H36.2763C36.2241 5.77494 36.0512 5.48951 35.7579 5.25862C35.4643 5.0277 35.1284 4.91226 34.75 4.91226C34.15 4.91226 33.6835 5.12391 33.351 5.54724C33.0183 5.97055 32.852 6.54462 32.852 7.26934C32.852 7.97486 33.0199 8.53447 33.3559 8.94816C33.6918 9.36186 34.1565 9.5687 34.75 9.5687C35.1936 9.5687 35.5524 9.43562 35.8264 9.16944C36.1003 8.90327 36.2698 8.52324 36.3351 8.02937H37.8221C37.7439 8.90166 37.426 9.58794 36.8682 10.0882C36.3106 10.5885 35.6045 10.8386 34.75 10.8386C33.726 10.8386 32.8977 10.5067 32.2649 9.8429C31.6322 9.17906 31.3159 8.32117 31.3159 7.26934C31.3159 6.20462 31.629 5.33395 32.2552 4.65731C32.8813 3.98068 33.713 3.64233 34.75 3.64233ZM41.9999 3.64233C43.0369 3.64233 43.8686 3.98225 44.4947 4.66212C45.1209 5.34199 45.4341 6.21106 45.4341 7.26934C45.4341 8.2699 45.1306 9.11334 44.5242 9.79959L45.3949 10.5789L44.6807 11.3197L43.6924 10.4346C43.2098 10.7039 42.6456 10.8386 41.9999 10.8386C40.9694 10.8386 40.1393 10.5019 39.5098 9.82845C38.8805 9.155 38.5658 8.30194 38.5658 7.26934C38.5658 6.20462 38.8789 5.33395 39.505 4.65731C40.1312 3.98068 40.9627 3.64233 41.9999 3.64233ZM40.1017 7.26934C40.1017 7.96846 40.2698 8.52648 40.6058 8.94335C40.9415 9.36021 41.4096 9.5687 42.0096 9.5687C42.3423 9.5687 42.5446 9.53663 42.6163 9.47249L41.9607 8.88563L42.6751 8.13521L43.4674 8.84715C43.7545 8.48155 43.8979 7.95561 43.8979 7.26934C43.8979 6.53816 43.7284 5.96256 43.3892 5.54241C43.05 5.12228 42.5835 4.91226 41.99 4.91226C41.4096 4.91226 40.9498 5.12071 40.6106 5.5376C40.2714 5.9545 40.1017 6.53172 40.1017 7.26934ZM47.9876 3.80589V8.10635C47.9876 8.61305 48.1034 8.98344 48.3349 9.21754C48.5664 9.45163 48.93 9.5687 49.4258 9.5687C49.9605 9.5687 50.3357 9.45165 50.5508 9.21754C50.7662 8.98344 50.8739 8.61305 50.8739 8.10635V3.80589H52.4098V8.10635C52.4098 8.96578 52.1603 9.63604 51.6613 10.1171C51.1623 10.5981 50.4171 10.8386 49.4258 10.8386C48.4149 10.8386 47.6664 10.5981 47.1803 10.1171C46.6945 9.63604 46.4514 8.96576 46.4514 8.10635V3.80589H47.9876ZM55.2668 3.80589V10.6751H53.7306V3.80589H55.2668ZM60.3836 3.80589C60.9706 3.80589 61.4583 3.98386 61.8464 4.33983C62.2343 4.69579 62.4284 5.14958 62.4284 5.70116C62.4284 6.56061 62.0599 7.13466 61.323 7.42328V7.44251C61.5706 7.51307 61.7648 7.63012 61.905 7.79367C62.0452 7.95722 62.1512 8.14803 62.223 8.36611C62.2947 8.58419 62.3403 8.93372 62.3599 9.41476C62.386 10.0433 62.4773 10.4634 62.6339 10.6751H61.0979C61.0131 10.4634 60.9478 10.0658 60.9022 9.4821C60.85 8.86638 60.7359 8.46394 60.5597 8.27471C60.3836 8.08547 60.0967 7.99089 59.6987 7.99089H58.1529V10.6751H56.6169V3.80589H60.3836ZM59.8456 6.91338C60.1716 6.91338 60.4276 6.84123 60.6135 6.6969C60.7995 6.5526 60.8925 6.29765 60.8925 5.93205C60.8925 5.58572 60.8011 5.34038 60.6185 5.19608C60.4359 5.05176 60.1749 4.97961 59.8357 4.97961H58.1529V6.91338H59.8456ZM65.2169 3.80589V10.6751H63.6807V3.80589H65.2169ZM68.0933 3.80589L71.0088 8.4142H71.0284V3.80589H72.4666V10.6751H70.9306L68.0248 6.07637H68.0052V10.6751H66.567V3.80589H68.0933ZM76.9476 3.64233C77.7434 3.64233 78.4183 3.87003 78.9729 4.3254C79.5272 4.78078 79.8339 5.36126 79.8925 6.06676H78.425C78.3337 5.68193 78.1575 5.3933 77.8967 5.20089C77.6357 5.00847 77.3193 4.91226 76.9476 4.91226C76.3476 4.91226 75.8812 5.12552 75.5484 5.55205C75.2159 5.97856 75.0496 6.55095 75.0496 7.26934C75.0496 7.97486 75.2191 8.53447 75.5583 8.94816C75.8975 9.36186 76.3606 9.5687 76.9476 9.5687C77.9521 9.5687 78.5064 9.07484 78.6109 8.0871H77.065V6.96147H80.0002V10.6751H79.0218L78.8652 9.8958C78.3761 10.5244 77.7369 10.8386 76.9476 10.8386C75.9171 10.8386 75.087 10.5051 74.4577 9.83807C73.8282 9.17105 73.5135 8.31482 73.5135 7.26934C73.5135 6.20462 73.8266 5.33395 74.4527 4.65731C75.0789 3.98068 75.9105 3.64233 76.9476 3.64233Z" fill="#BF1922"/>
<path d="M27.7752 13.3302V14.1293H26.4577V17.6526H25.4912V14.1293H24.1738V13.3302H27.7752ZM31.5676 13.3302V14.1293H29.2466V15.0555H31.3767V15.7941H29.2466V16.8535H31.6167V17.6526H28.2801V13.3302H31.5676ZM34.2393 13.2273C34.7524 13.2273 35.1833 13.3696 35.5322 13.6541C35.8811 13.9386 36.0821 14.315 36.1354 14.7831H35.1997C35.167 14.5692 35.0581 14.3896 34.8734 14.2443C34.6888 14.099 34.4775 14.0264 34.2393 14.0264C33.8617 14.0264 33.5684 14.1596 33.3591 14.4259C33.1496 14.6923 33.0449 15.0535 33.0449 15.5095C33.0449 15.9535 33.1508 16.3056 33.3621 16.5659C33.5734 16.8262 33.8659 16.9564 34.2393 16.9564C34.5185 16.9564 34.7441 16.8726 34.9165 16.7052C35.089 16.5377 35.1956 16.2986 35.2367 15.9878H36.1724C36.1231 16.5367 35.9231 16.9685 35.5722 17.2833C35.2213 17.5981 34.7771 17.7555 34.2393 17.7555C33.595 17.7555 33.0738 17.5466 32.6756 17.1289C32.2775 16.7112 32.0785 16.1714 32.0785 15.5095C32.0785 14.8396 32.2754 14.2917 32.6694 13.866C33.0635 13.4402 33.5868 13.2273 34.2393 13.2273ZM37.7977 13.3302V14.9889H39.5769V13.3302H40.5433V17.6526H39.5769V15.788H37.7977V17.6526H36.8312V13.3302H37.7977ZM42.3534 13.3302L44.188 16.2299H44.2003V13.3302H45.1051V17.6526H44.1387L42.3102 14.7589H42.2979V17.6526H41.393V13.3302H42.3534ZM47.9247 13.2273C48.5732 13.2273 49.0956 13.4392 49.4916 13.8629C49.8876 14.2867 50.0857 14.8356 50.0857 15.5095C50.0857 16.1674 49.8866 16.7062 49.4886 17.1259C49.0904 17.5456 48.5692 17.7555 47.9247 17.7555C47.2765 17.7555 46.754 17.5456 46.3581 17.1259C45.9619 16.7062 45.7639 16.1674 45.7639 15.5095C45.7639 14.8396 45.9629 14.2917 46.3611 13.866C46.7593 13.4402 47.2805 13.2273 47.9247 13.2273ZM46.7306 15.5095C46.7306 15.9454 46.8352 16.2955 47.0445 16.5599C47.2538 16.8242 47.5472 16.9564 47.9247 16.9564C48.2942 16.9564 48.5855 16.8262 48.7991 16.5659C49.0124 16.3056 49.1191 15.9535 49.1191 15.5095C49.1191 15.0454 49.0134 14.6822 48.8021 14.4199C48.5908 14.1576 48.2963 14.0264 47.9187 14.0264C47.5494 14.0264 47.2589 14.1575 47.0476 14.4199C46.8362 14.6822 46.7306 15.0454 46.7306 15.5095ZM51.711 13.3302V16.8535H53.8534V17.6526H50.7443V13.3302H51.711ZM56.3651 13.2273C57.0136 13.2273 57.5358 13.4392 57.932 13.8629C58.328 14.2867 58.5259 14.8356 58.5259 15.5095C58.5259 16.1674 58.327 16.7062 57.9288 17.1259C57.5308 17.5456 57.0096 17.7555 56.3651 17.7555C55.7167 17.7555 55.1944 17.5456 54.7983 17.1259C54.4023 16.7062 54.2043 16.1674 54.2043 15.5095C54.2043 14.8396 54.4033 14.2917 54.8015 13.866C55.1995 13.4402 55.7207 13.2273 56.3651 13.2273ZM55.1708 15.5095C55.1708 15.9454 55.2754 16.2955 55.4847 16.5599C55.694 16.8242 55.9876 16.9564 56.3651 16.9564C56.7344 16.9564 57.0259 16.8262 57.2393 16.5659C57.4528 16.3056 57.5595 15.9535 57.5595 15.5095C57.5595 15.0454 57.4538 14.6822 57.2423 14.4199C57.031 14.1576 56.7367 14.0264 56.3589 14.0264C55.9896 14.0264 55.6993 14.1575 55.4878 14.4199C55.2765 14.6822 55.1708 15.0454 55.1708 15.5095ZM61.1548 13.2273C61.6554 13.2273 62.0803 13.3706 62.4292 13.6571C62.7781 13.9437 62.9708 14.3089 63.0078 14.7528H62.0843C62.027 14.5107 61.916 14.3291 61.7518 14.208C61.5878 14.0869 61.3888 14.0264 61.1548 14.0264C60.7771 14.0264 60.4837 14.1606 60.2744 14.429C60.0651 14.6973 59.9605 15.0575 59.9605 15.5095C59.9605 15.9535 60.0672 16.3056 60.2805 16.5659C60.494 16.8262 60.7853 16.9564 61.1548 16.9564C61.7868 16.9564 62.1356 16.6456 62.2013 16.0241H61.2286V15.3158H63.0754V17.6526H62.4599L62.3613 17.1622C62.0536 17.5577 61.6514 17.7555 61.1548 17.7555C60.5064 17.7555 59.9839 17.5456 59.588 17.1259C59.192 16.7062 58.9938 16.1674 58.9938 15.5095C58.9938 14.8396 59.1908 14.2917 59.5849 13.866C59.9789 13.4402 60.5021 13.2273 61.1548 13.2273ZM64.4668 13.3302L65.495 15.0374L66.5169 13.3302H67.5942L65.9629 15.9938V17.6526H64.9962V15.9696L63.3773 13.3302H64.4668Z" fill="url(#paint0_linear_208_203)"/>
</g>
<mask id="mask1_208_203" style="mask-type:luminance" maskUnits="userSpaceOnUse" x="0" y="0" width="80" height="22">
<path d="M80 0H0V21.2787H80V0Z" fill="white"/>
</mask>
<g mask="url(#mask1_208_203)">
<path fill-rule="evenodd" clip-rule="evenodd" d="M5.96834 17.5251L3.89905 14.1052L5.96834 10.6794H10.1026L8.03485 14.1052L10.1026 17.5251H5.96834Z" fill="white"/>
<path fill-rule="evenodd" clip-rule="evenodd" d="M12.1703 7.25664L10.1025 3.83398L8.03479 7.25664L10.0204 10.5438L10.1025 10.6793L12.1703 14.1051L14.2383 17.525L16.3048 14.1051L14.2383 10.6793L12.1703 7.25664Z" fill="white"/>
<path d="M28.4003 3.80589L31.0126 10.6751H29.4179L28.8896 9.14539H26.2773L25.7294 10.6751H24.1738L26.8251 3.80589H28.4003ZM27.5884 5.49913L26.6785 8.01976H28.4884L27.608 5.49913H27.5884ZM34.75 3.64233C35.5654 3.64233 36.2502 3.86842 36.8048 4.3206C37.3591 4.77277 37.6787 5.37088 37.7635 6.11485H36.2763C36.2241 5.77494 36.0512 5.48951 35.7579 5.25862C35.4643 5.0277 35.1284 4.91226 34.75 4.91226C34.15 4.91226 33.6835 5.12391 33.351 5.54724C33.0183 5.97055 32.852 6.54462 32.852 7.26934C32.852 7.97486 33.0199 8.53447 33.3559 8.94816C33.6918 9.36186 34.1565 9.5687 34.75 9.5687C35.1936 9.5687 35.5524 9.43562 35.8264 9.16944C36.1003 8.90327 36.2698 8.52324 36.3351 8.02937H37.8221C37.7439 8.90166 37.426 9.58794 36.8682 10.0882C36.3106 10.5885 35.6045 10.8386 34.75 10.8386C33.726 10.8386 32.8977 10.5067 32.2649 9.8429C31.6322 9.17906 31.3159 8.32117 31.3159 7.26934C31.3159 6.20462 31.629 5.33395 32.2552 4.65731C32.8813 3.98068 33.713 3.64233 34.75 3.64233ZM41.9999 3.64233C43.0369 3.64233 43.8686 3.98225 44.4947 4.66212C45.1209 5.34199 45.4341 6.21106 45.4341 7.26934C45.4341 8.2699 45.1306 9.11334 44.5242 9.79959L45.3949 10.5789L44.6807 11.3197L43.6924 10.4346C43.2098 10.7039 42.6456 10.8386 41.9999 10.8386C40.9694 10.8386 40.1393 10.5019 39.5098 9.82845C38.8805 9.155 38.5658 8.30194 38.5658 7.26934C38.5658 6.20462 38.8789 5.33395 39.505 4.65731C40.1312 3.98068 40.9627 3.64233 41.9999 3.64233ZM40.1017 7.26934C40.1017 7.96846 40.2698 8.52648 40.6058 8.94335C40.9415 9.36021 41.4096 9.5687 42.0096 9.5687C42.3423 9.5687 42.5446 9.53663 42.6163 9.47249L41.9607 8.88563L42.6751 8.13521L43.4674 8.84715C43.7545 8.48155 43.8979 7.95561 43.8979 7.26934C43.8979 6.53816 43.7284 5.96256 43.3892 5.54241C43.05 5.12228 42.5835 4.91226 41.99 4.91226C41.4096 4.91226 40.9498 5.12071 40.6106 5.5376C40.2714 5.9545 40.1017 6.53172 40.1017 7.26934ZM47.9876 3.80589V8.10635C47.9876 8.61305 48.1034 8.98344 48.3349 9.21754C48.5664 9.45163 48.93 9.5687 49.4258 9.5687C49.9605 9.5687 50.3357 9.45165 50.5508 9.21754C50.7662 8.98344 50.8739 8.61305 50.8739 8.10635V3.80589H52.4098V8.10635C52.4098 8.96578 52.1603 9.63604 51.6613 10.1171C51.1623 10.5981 50.4171 10.8386 49.4258 10.8386C48.4149 10.8386 47.6664 10.5981 47.1803 10.1171C46.6945 9.63604 46.4514 8.96576 46.4514 8.10635V3.80589H47.9876ZM55.2668 3.80589V10.6751H53.7306V3.80589H55.2668ZM60.3836 3.80589C60.9706 3.80589 61.4583 3.98386 61.8464 4.33983C62.2343 4.69579 62.4284 5.14958 62.4284 5.70116C62.4284 6.56061 62.0599 7.13466 61.323 7.42328V7.44251C61.5706 7.51307 61.7648 7.63012 61.905 7.79367C62.0452 7.95722 62.1512 8.14803 62.223 8.36611C62.2947 8.58419 62.3403 8.93372 62.3599 9.41476C62.386 10.0433 62.4773 10.4634 62.6339 10.6751H61.0979C61.0131 10.4634 60.9478 10.0658 60.9022 9.4821C60.85 8.86638 60.7359 8.46394 60.5597 8.27471C60.3836 8.08547 60.0967 7.99089 59.6987 7.99089H58.1529V10.6751H56.6169V3.80589H60.3836ZM59.8456 6.91338C60.1716 6.91338 60.4276 6.84123 60.6135 6.6969C60.7995 6.5526 60.8925 6.29765 60.8925 5.93205C60.8925 5.58572 60.8011 5.34038 60.6185 5.19608C60.4359 5.05176 60.1749 4.97961 59.8357 4.97961H58.1529V6.91338H59.8456ZM65.2169 3.80589V10.6751H63.6807V3.80589H65.2169ZM68.0933 3.80589L71.0088 8.4142H71.0284V3.80589H72.4666V10.6751H70.9306L68.0248 6.07637H68.0052V10.6751H66.567V3.80589H68.0933ZM76.9476 3.64233C77.7434 3.64233 78.4183 3.87003 78.9729 4.3254C79.5272 4.78078 79.8339 5.36126 79.8925 6.06676H78.425C78.3337 5.68193 78.1575 5.3933 77.8967 5.20089C77.6357 5.00847 77.3193 4.91226 76.9476 4.91226C76.3476 4.91226 75.8812 5.12552 75.5484 5.55205C75.2159 5.97856 75.0496 6.55095 75.0496 7.26934C75.0496 7.97486 75.2191 8.53447 75.5583 8.94816C75.8975 9.36186 76.3606 9.5687 76.9476 9.5687C77.9521 9.5687 78.5064 9.07484 78.6109 8.0871H77.065V6.96147H80.0002V10.6751H79.0218L78.8652 9.8958C78.3761 10.5244 77.7369 10.8386 76.9476 10.8386C75.9171 10.8386 75.087 10.5051 74.4577 9.83807C73.8282 9.17105 73.5135 8.31482 73.5135 7.26934C73.5135 6.20462 73.8266 5.33395 74.4527 4.65731C75.0789 3.98068 75.9105 3.64233 76.9476 3.64233Z" fill="#BF1922"/>
<path d="M27.7752 13.3302V14.1293H26.4577V17.6526H25.4912V14.1293H24.1738V13.3302H27.7752ZM31.5676 13.3302V14.1293H29.2466V15.0555H31.3767V15.7941H29.2466V16.8535H31.6167V17.6526H28.2801V13.3302H31.5676ZM34.2393 13.2273C34.7524 13.2273 35.1833 13.3696 35.5322 13.6541C35.8811 13.9386 36.0821 14.315 36.1354 14.7831H35.1997C35.167 14.5692 35.0581 14.3896 34.8734 14.2443C34.6888 14.099 34.4775 14.0264 34.2393 14.0264C33.8617 14.0264 33.5684 14.1596 33.3591 14.4259C33.1496 14.6923 33.0449 15.0535 33.0449 15.5095C33.0449 15.9535 33.1508 16.3056 33.3621 16.5659C33.5734 16.8262 33.8659 16.9564 34.2393 16.9564C34.5185 16.9564 34.7441 16.8726 34.9165 16.7052C35.089 16.5377 35.1956 16.2986 35.2367 15.9878H36.1724C36.1231 16.5367 35.9231 16.9685 35.5722 17.2833C35.2213 17.5981 34.7771 17.7555 34.2393 17.7555C33.595 17.7555 33.0738 17.5466 32.6756 17.1289C32.2775 16.7112 32.0785 16.1714 32.0785 15.5095C32.0785 14.8396 32.2754 14.2917 32.6694 13.866C33.0635 13.4402 33.5868 13.2273 34.2393 13.2273ZM37.7977 13.3302V14.9889H39.5769V13.3302H40.5433V17.6526H39.5769V15.788H37.7977V17.6526H36.8312V13.3302H37.7977ZM42.3534 13.3302L44.188 16.2299H44.2003V13.3302H45.1051V17.6526H44.1387L42.3102 14.7589H42.2979V17.6526H41.393V13.3302H42.3534ZM47.9247 13.2273C48.5732 13.2273 49.0956 13.4392 49.4916 13.8629C49.8876 14.2867 50.0857 14.8356 50.0857 15.5095C50.0857 16.1674 49.8866 16.7062 49.4886 17.1259C49.0904 17.5456 48.5692 17.7555 47.9247 17.7555C47.2765 17.7555 46.754 17.5456 46.3581 17.1259C45.9619 16.7062 45.7639 16.1674 45.7639 15.5095C45.7639 14.8396 45.9629 14.2917 46.3611 13.866C46.7593 13.4402 47.2805 13.2273 47.9247 13.2273ZM46.7306 15.5095C46.7306 15.9454 46.8352 16.2955 47.0445 16.5599C47.2538 16.8242 47.5472 16.9564 47.9247 16.9564C48.2942 16.9564 48.5855 16.8262 48.7991 16.5659C49.0124 16.3056 49.1191 15.9535 49.1191 15.5095C49.1191 15.0454 49.0134 14.6822 48.8021 14.4199C48.5908 14.1576 48.2963 14.0264 47.9187 14.0264C47.5494 14.0264 47.2589 14.1575 47.0476 14.4199C46.8362 14.6822 46.7306 15.0454 46.7306 15.5095ZM51.711 13.3302V16.8535H53.8534V17.6526H50.7443V13.3302H51.711ZM56.3651 13.2273C57.0136 13.2273 57.5358 13.4392 57.932 13.8629C58.328 14.2867 58.5259 14.8356 58.5259 15.5095C58.5259 16.1674 58.327 16.7062 57.9288 17.1259C57.5308 17.5456 57.0096 17.7555 56.3651 17.7555C55.7167 17.7555 55.1944 17.5456 54.7983 17.1259C54.4023 16.7062 54.2043 16.1674 54.2043 15.5095C54.2043 14.8396 54.4033 14.2917 54.8015 13.866C55.1995 13.4402 55.7207 13.2273 56.3651 13.2273ZM55.1708 15.5095C55.1708 15.9454 55.2754 16.2955 55.4847 16.5599C55.694 16.8242 55.9876 16.9564 56.3651 16.9564C56.7344 16.9564 57.0259 16.8262 57.2393 16.5659C57.4528 16.3056 57.5595 15.9535 57.5595 15.5095C57.5595 15.0454 57.4538 14.6822 57.2423 14.4199C57.031 14.1576 56.7367 14.0264 56.3589 14.0264C55.9896 14.0264 55.6993 14.1575 55.4878 14.4199C55.2765 14.6822 55.1708 15.0454 55.1708 15.5095ZM61.1548 13.2273C61.6554 13.2273 62.0803 13.3706 62.4292 13.6571C62.7781 13.9437 62.9708 14.3089 63.0078 14.7528H62.0843C62.027 14.5107 61.916 14.3291 61.7518 14.208C61.5878 14.0869 61.3888 14.0264 61.1548 14.0264C60.7771 14.0264 60.4837 14.1606 60.2744 14.429C60.0651 14.6973 59.9605 15.0575 59.9605 15.5095C59.9605 15.9535 60.0672 16.3056 60.2805 16.5659C60.494 16.8262 60.7853 16.9564 61.1548 16.9564C61.7868 16.9564 62.1356 16.6456 62.2013 16.0241H61.2286V15.3158H63.0754V17.6526H62.4599L62.3613 17.1622C62.0536 17.5577 61.6514 17.7555 61.1548 17.7555C60.5064 17.7555 59.9839 17.5456 59.588 17.1259C59.192 16.7062 58.9938 16.1674 58.9938 15.5095C58.9938 14.8396 59.1908 14.2917 59.5849 13.866C59.9789 13.4402 60.5021 13.2273 61.1548 13.2273ZM64.4668 13.3302L65.495 15.0374L66.5169 13.3302H67.5942L65.9629 15.9938V17.6526H64.9962V15.9696L63.3773 13.3302H64.4668Z" fill="url(#paint1_linear_208_203)"/>
</g>
<mask id="mask2_208_203" style="mask-type:luminance" maskUnits="userSpaceOnUse" x="0" y="0" width="80" height="22">
<path d="M80 0H0V21.2787H80V0Z" fill="white"/>
</mask>
<g mask="url(#mask2_208_203)">
<path fill-rule="evenodd" clip-rule="evenodd" d="M5.96834 17.5251L3.89905 14.1052L5.96834 10.6794H10.1026L8.03485 14.1052L10.1026 17.5251H5.96834Z" fill="white"/>
<path fill-rule="evenodd" clip-rule="evenodd" d="M12.1703 7.25664L10.1025 3.83398L8.03479 7.25664L10.0204 10.5438L10.1025 10.6793L12.1703 14.1051L14.2383 17.525L16.3048 14.1051L14.2383 10.6793L12.1703 7.25664Z" fill="white"/>
<path d="M28.4003 3.80589L31.0126 10.6751H29.4179L28.8896 9.14539H26.2773L25.7294 10.6751H24.1738L26.8251 3.80589H28.4003ZM27.5884 5.49913L26.6785 8.01976H28.4884L27.608 5.49913H27.5884ZM34.75 3.64233C35.5654 3.64233 36.2502 3.86842 36.8048 4.3206C37.3591 4.77277 37.6787 5.37088 37.7635 6.11485H36.2763C36.2241 5.77494 36.0512 5.48951 35.7579 5.25862C35.4643 5.0277 35.1284 4.91226 34.75 4.91226C34.15 4.91226 33.6835 5.12391 33.351 5.54724C33.0183 5.97055 32.852 6.54462 32.852 7.26934C32.852 7.97486 33.0199 8.53447 33.3559 8.94816C33.6918 9.36186 34.1565 9.5687 34.75 9.5687C35.1936 9.5687 35.5524 9.43562 35.8264 9.16944C36.1003 8.90327 36.2698 8.52324 36.3351 8.02937H37.8221C37.7439 8.90166 37.426 9.58794 36.8682 10.0882C36.3106 10.5885 35.6045 10.8386 34.75 10.8386C33.726 10.8386 32.8977 10.5067 32.2649 9.8429C31.6322 9.17906 31.3159 8.32117 31.3159 7.26934C31.3159 6.20462 31.629 5.33395 32.2552 4.65731C32.8813 3.98068 33.713 3.64233 34.75 3.64233ZM41.9999 3.64233C43.0369 3.64233 43.8686 3.98225 44.4947 4.66212C45.1209 5.34199 45.4341 6.21106 45.4341 7.26934C45.4341 8.2699 45.1306 9.11334 44.5242 9.79959L45.3949 10.5789L44.6807 11.3197L43.6924 10.4346C43.2098 10.7039 42.6456 10.8386 41.9999 10.8386C40.9694 10.8386 40.1393 10.5019 39.5098 9.82845C38.8805 9.155 38.5658 8.30194 38.5658 7.26934C38.5658 6.20462 38.8789 5.33395 39.505 4.65731C40.1312 3.98068 40.9627 3.64233 41.9999 3.64233ZM40.1017 7.26934C40.1017 7.96846 40.2698 8.52648 40.6058 8.94335C40.9415 9.36021 41.4096 9.5687 42.0096 9.5687C42.3423 9.5687 42.5446 9.53663 42.6163 9.47249L41.9607 8.88563L42.6751 8.13521L43.4674 8.84715C43.7545 8.48155 43.8979 7.95561 43.8979 7.26934C43.8979 6.53816 43.7284 5.96256 43.3892 5.54241C43.05 5.12228 42.5835 4.91226 41.99 4.91226C41.4096 4.91226 40.9498 5.12071 40.6106 5.5376C40.2714 5.9545 40.1017 6.53172 40.1017 7.26934ZM47.9876 3.80589V8.10635C47.9876 8.61305 48.1034 8.98344 48.3349 9.21754C48.5664 9.45163 48.93 9.5687 49.4258 9.5687C49.9605 9.5687 50.3357 9.45165 50.5508 9.21754C50.7662 8.98344 50.8739 8.61305 50.8739 8.10635V3.80589H52.4098V8.10635C52.4098 8.96578 52.1603 9.63604 51.6613 10.1171C51.1623 10.5981 50.4171 10.8386 49.4258 10.8386C48.4149 10.8386 47.6664 10.5981 47.1803 10.1171C46.6945 9.63604 46.4514 8.96576 46.4514 8.10635V3.80589H47.9876ZM55.2668 3.80589V10.6751H53.7306V3.80589H55.2668ZM60.3836 3.80589C60.9706 3.80589 61.4583 3.98386 61.8464 4.33983C62.2343 4.69579 62.4284 5.14958 62.4284 5.70116C62.4284 6.56061 62.0599 7.13466 61.323 7.42328V7.44251C61.5706 7.51307 61.7648 7.63012 61.905 7.79367C62.0452 7.95722 62.1512 8.14803 62.223 8.36611C62.2947 8.58419 62.3403 8.93372 62.3599 9.41476C62.386 10.0433 62.4773 10.4634 62.6339 10.6751H61.0979C61.0131 10.4634 60.9478 10.0658 60.9022 9.4821C60.85 8.86638 60.7359 8.46394 60.5597 8.27471C60.3836 8.08547 60.0967 7.99089 59.6987 7.99089H58.1529V10.6751H56.6169V3.80589H60.3836ZM59.8456 6.91338C60.1716 6.91338 60.4276 6.84123 60.6135 6.6969C60.7995 6.5526 60.8925 6.29765 60.8925 5.93205C60.8925 5.58572 60.8011 5.34038 60.6185 5.19608C60.4359 5.05176 60.1749 4.97961 59.8357 4.97961H58.1529V6.91338H59.8456ZM65.2169 3.80589V10.6751H63.6807V3.80589H65.2169ZM68.0933 3.80589L71.0088 8.4142H71.0284V3.80589H72.4666V10.6751H70.9306L68.0248 6.07637H68.0052V10.6751H66.567V3.80589H68.0933ZM76.9476 3.64233C77.7434 3.64233 78.4183 3.87003 78.9729 4.3254C79.5272 4.78078 79.8339 5.36126 79.8925 6.06676H78.425C78.3337 5.68193 78.1575 5.3933 77.8967 5.20089C77.6357 5.00847 77.3193 4.91226 76.9476 4.91226C76.3476 4.91226 75.8812 5.12552 75.5484 5.55205C75.2159 5.97856 75.0496 6.55095 75.0496 7.26934C75.0496 7.97486 75.2191 8.53447 75.5583 8.94816C75.8975 9.36186 76.3606 9.5687 76.9476 9.5687C77.9521 9.5687 78.5064 9.07484 78.6109 8.0871H77.065V6.96147H80.0002V10.6751H79.0218L78.8652 9.8958C78.3761 10.5244 77.7369 10.8386 76.9476 10.8386C75.9171 10.8386 75.087 10.5051 74.4577 9.83807C73.8282 9.17105 73.5135 8.31482 73.5135 7.26934C73.5135 6.20462 73.8266 5.33395 74.4527 4.65731C75.0789 3.98068 75.9105 3.64233 76.9476 3.64233Z" fill="#BF1922"/>
<path d="M27.7752 13.3302V14.1293H26.4577V17.6526H25.4912V14.1293H24.1738V13.3302H27.7752ZM31.5676 13.3302V14.1293H29.2466V15.0555H31.3767V15.7941H29.2466V16.8535H31.6167V17.6526H28.2801V13.3302H31.5676ZM34.2393 13.2273C34.7524 13.2273 35.1833 13.3696 35.5322 13.6541C35.8811 13.9386 36.0821 14.315 36.1354 14.7831H35.1997C35.167 14.5692 35.0581 14.3896 34.8734 14.2443C34.6888 14.099 34.4775 14.0264 34.2393 14.0264C33.8617 14.0264 33.5684 14.1596 33.3591 14.4259C33.1496 14.6923 33.0449 15.0535 33.0449 15.5095C33.0449 15.9535 33.1508 16.3056 33.3621 16.5659C33.5734 16.8262 33.8659 16.9564 34.2393 16.9564C34.5185 16.9564 34.7441 16.8726 34.9165 16.7052C35.089 16.5377 35.1956 16.2986 35.2367 15.9878H36.1724C36.1231 16.5367 35.9231 16.9685 35.5722 17.2833C35.2213 17.5981 34.7771 17.7555 34.2393 17.7555C33.595 17.7555 33.0738 17.5466 32.6756 17.1289C32.2775 16.7112 32.0785 16.1714 32.0785 15.5095C32.0785 14.8396 32.2754 14.2917 32.6694 13.866C33.0635 13.4402 33.5868 13.2273 34.2393 13.2273ZM37.7977 13.3302V14.9889H39.5769V13.3302H40.5433V17.6526H39.5769V15.788H37.7977V17.6526H36.8312V13.3302H37.7977ZM42.3534 13.3302L44.188 16.2299H44.2003V13.3302H45.1051V17.6526H44.1387L42.3102 14.7589H42.2979V17.6526H41.393V13.3302H42.3534ZM47.9247 13.2273C48.5732 13.2273 49.0956 13.4392 49.4916 13.8629C49.8876 14.2867 50.0857 14.8356 50.0857 15.5095C50.0857 16.1674 49.8866 16.7062 49.4886 17.1259C49.0904 17.5456 48.5692 17.7555 47.9247 17.7555C47.2765 17.7555 46.754 17.5456 46.3581 17.1259C45.9619 16.7062 45.7639 16.1674 45.7639 15.5095C45.7639 14.8396 45.9629 14.2917 46.3611 13.866C46.7593 13.4402 47.2805 13.2273 47.9247 13.2273ZM46.7306 15.5095C46.7306 15.9454 46.8352 16.2955 47.0445 16.5599C47.2538 16.8242 47.5472 16.9564 47.9247 16.9564C48.2942 16.9564 48.5855 16.8262 48.7991 16.5659C49.0124 16.3056 49.1191 15.9535 49.1191 15.5095C49.1191 15.0454 49.0134 14.6822 48.8021 14.4199C48.5908 14.1576 48.2963 14.0264 47.9187 14.0264C47.5494 14.0264 47.2589 14.1575 47.0476 14.4199C46.8362 14.6822 46.7306 15.0454 46.7306 15.5095ZM51.711 13.3302V16.8535H53.8534V17.6526H50.7443V13.3302H51.711ZM56.3651 13.2273C57.0136 13.2273 57.5358 13.4392 57.932 13.8629C58.328 14.2867 58.5259 14.8356 58.5259 15.5095C58.5259 16.1674 58.327 16.7062 57.9288 17.1259C57.5308 17.5456 57.0096 17.7555 56.3651 17.7555C55.7167 17.7555 55.1944 17.5456 54.7983 17.1259C54.4023 16.7062 54.2043 16.1674 54.2043 15.5095C54.2043 14.8396 54.4033 14.2917 54.8015 13.866C55.1995 13.4402 55.7207 13.2273 56.3651 13.2273ZM55.1708 15.5095C55.1708 15.9454 55.2754 16.2955 55.4847 16.5599C55.694 16.8242 55.9876 16.9564 56.3651 16.9564C56.7344 16.9564 57.0259 16.8262 57.2393 16.5659C57.4528 16.3056 57.5595 15.9535 57.5595 15.5095C57.5595 15.0454 57.4538 14.6822 57.2423 14.4199C57.031 14.1576 56.7367 14.0264 56.3589 14.0264C55.9896 14.0264 55.6993 14.1575 55.4878 14.4199C55.2765 14.6822 55.1708 15.0454 55.1708 15.5095ZM61.1548 13.2273C61.6554 13.2273 62.0803 13.3706 62.4292 13.6571C62.7781 13.9437 62.9708 14.3089 63.0078 14.7528H62.0843C62.027 14.5107 61.916 14.3291 61.7518 14.208C61.5878 14.0869 61.3888 14.0264 61.1548 14.0264C60.7771 14.0264 60.4837 14.1606 60.2744 14.429C60.0651 14.6973 59.9605 15.0575 59.9605 15.5095C59.9605 15.9535 60.0672 16.3056 60.2805 16.5659C60.494 16.8262 60.7853 16.9564 61.1548 16.9564C61.7868 16.9564 62.1356 16.6456 62.2013 16.0241H61.2286V15.3158H63.0754V17.6526H62.4599L62.3613 17.1622C62.0536 17.5577 61.6514 17.7555 61.1548 17.7555C60.5064 17.7555 59.9839 17.5456 59.588 17.1259C59.192 16.7062 58.9938 16.1674 58.9938 15.5095C58.9938 14.8396 59.1908 14.2917 59.5849 13.866C59.9789 13.4402 60.5021 13.2273 61.1548 13.2273ZM64.4668 13.3302L65.495 15.0374L66.5169 13.3302H67.5942L65.9629 15.9938V17.6526H64.9962V15.9696L63.3773 13.3302H64.4668Z" fill="url(#paint2_linear_208_203)"/>
</g>
<path d="M19.4716 0.595947H3.15466C2.08184 0.595947 1.21216 1.39721 1.21216 2.38561V18.6716C1.21216 19.6599 2.08184 20.4613 3.15466 20.4613H19.4716C20.5444 20.4613 21.4142 19.6599 21.4142 18.6716V2.38561C21.4142 1.39721 20.5444 0.595947 19.4716 0.595947Z" fill="#BF1922"/>
<path fill-rule="evenodd" clip-rule="evenodd" d="M6.9178 16.6708L4.84851 13.2509L6.9178 9.8252H11.052L8.98431 13.2509L11.052 16.6708H6.9178Z" fill="white"/>
<path fill-rule="evenodd" clip-rule="evenodd" d="M13.1197 6.40239L11.052 2.97974L8.98425 6.40239L10.9698 9.68951L11.052 9.82507L13.1197 13.2508L15.1878 16.6707L17.2543 13.2508L15.1878 9.82507L13.1197 6.40239Z" fill="white"/>
<defs>
<linearGradient id="paint0_linear_208_203" x1="24.1738" y1="13.2273" x2="67.5942" y2="13.2273" gradientUnits="userSpaceOnUse">
<stop stop-color="#7D141D"/>
<stop offset="1" stop-color="#FF1E27"/>
</linearGradient>
<linearGradient id="paint1_linear_208_203" x1="24.1738" y1="13.2273" x2="67.5942" y2="13.2273" gradientUnits="userSpaceOnUse">
<stop stop-color="#7D141D"/>
<stop offset="1" stop-color="#FF1E27"/>
</linearGradient>
<linearGradient id="paint2_linear_208_203" x1="24.1738" y1="13.2273" x2="67.5942" y2="13.2273" gradientUnits="userSpaceOnUse">
<stop stop-color="#7D141D"/>
<stop offset="1" stop-color="#FF1E27"/>
</linearGradient>
</defs>
</svg>
